<svg fill="none" height="100" viewBox="0 0 24 24" width="100" xmlns="http://www.w3.org/2000/svg"><g stroke="#292d32" stroke-linecap="round" stroke-linejoin="round" stroke-width="1.5"><path d="m12 19c2.2091 0 4-1.7909 4-4s-1.7909-4-4-4c-2.20914 0-4 1.7909-4 4s1.79086 4 4 4z" stroke-miterlimit="10"/><path d="m10.44 15 .65.65c.19.19.5.2.69.01l1.78-1.64"/><g stroke-miterlimit="10"><path d="m9 22h6c4.02 0 4.74-1.61 4.95-3.57l.75-6c.27-2.44-.43-4.43-4.7-4.43h-8c-4.27 0-4.97 1.99-4.7 4.43l.75 6c.21 1.96.93 3.57 4.95 3.57z"/><path d="m7.5 7.67001v-.97c0-2.25 1.81-4.46 4.06-4.67 2.68-.26 4.94 1.85 4.94 4.48v1.38"/></g></g></svg>